<?xml version="1.0" encoding="UTF-8"?>
<svg id="Objects" xmlns="http://www.w3.org/2000/svg" viewBox="0 0 215.31 55.58">
  <defs>
    <style>
      .cls-1 {
        fill: #f5f7dc;
        stroke-width: 0px;
      }
    </style>
  </defs>
  <g>
    <g>
      <path class="cls-1" d="M79.25,34.96v1.81h-4.17v2.37h3.19v1.74h-3.19v2.42h4.17v1.81h-6.54v-10.16h6.54Z"/>
      <path class="cls-1" d="M87.92,37.03c-.07.11-.14.2-.22.25-.08.06-.17.08-.3.08-.11,0-.22-.03-.34-.1s-.26-.14-.42-.23c-.16-.08-.33-.16-.53-.23-.2-.07-.43-.1-.68-.1-.44,0-.77.09-.99.28-.22.19-.32.44-.32.76,0,.21.06.37.19.51.13.14.3.25.51.35.21.1.45.19.73.27.27.08.55.17.83.27.28.1.56.22.83.35.27.13.51.31.72.52.21.21.38.46.51.76s.2.66.2,1.08c0,.47-.08.91-.24,1.32-.16.41-.4.77-.71,1.07-.31.3-.69.54-1.14.72-.45.17-.97.26-1.54.26-.32,0-.64-.03-.96-.1-.33-.06-.65-.16-.95-.28-.31-.12-.59-.26-.86-.42-.27-.16-.5-.34-.7-.54l.7-1.1c.05-.08.12-.15.22-.2.09-.05.19-.08.3-.08.14,0,.28.04.42.13.14.09.3.19.48.29.18.11.38.2.62.29.23.09.51.13.82.13.43,0,.76-.09,1-.28.24-.19.36-.49.36-.9,0-.24-.07-.43-.2-.58-.13-.15-.3-.27-.51-.37s-.45-.18-.72-.26c-.27-.08-.55-.16-.83-.25-.28-.09-.56-.2-.83-.33-.27-.13-.51-.31-.72-.52-.21-.22-.38-.49-.51-.81-.13-.32-.2-.72-.2-1.2,0-.38.08-.75.23-1.12.15-.36.38-.69.68-.97.3-.28.66-.51,1.09-.68.43-.17.93-.25,1.48-.25.31,0,.61.02.91.07.29.05.58.12.84.22.26.09.51.21.74.34.23.13.44.28.62.45l-.59,1.09Z"/>
      <path class="cls-1" d="M98.87,34.96v1.87h-2.86v8.29h-2.36v-8.29h-2.86v-1.87h8.07Z"/>
      <path class="cls-1" d="M109.24,34.85c.5,0,.95.07,1.36.22.4.15.75.35,1.03.61.28.26.5.57.65.93.15.36.23.76.23,1.19,0,.37-.05.72-.16,1.03s-.25.62-.43.9c-.18.29-.39.56-.63.83s-.49.54-.76.81l-1.99,2.04c.25-.07.51-.13.76-.18s.48-.07.7-.07h1.9c.23,0,.42.06.55.19.13.13.2.3.2.51v1.25h-7.14v-.7c0-.13.03-.28.08-.43.06-.15.15-.29.29-.42l2.93-2.95c.25-.25.47-.49.66-.72s.34-.45.46-.67.21-.44.27-.66c.06-.22.09-.45.09-.7,0-.4-.1-.71-.29-.93-.19-.22-.49-.32-.88-.32-.16,0-.31.02-.45.07-.13.05-.26.11-.36.19-.11.08-.2.17-.28.28-.08.11-.14.22-.18.35-.07.21-.17.36-.28.45-.11.09-.27.14-.46.14-.05,0-.1,0-.15,0-.05,0-.11-.01-.16-.02l-1.14-.2c.07-.51.22-.95.43-1.33.21-.38.47-.69.79-.94.31-.25.67-.44,1.08-.56s.84-.18,1.3-.18Z"/>
      <path class="cls-1" d="M122.61,40.04c0,.89-.09,1.66-.29,2.31s-.45,1.19-.79,1.62c-.34.43-.74.75-1.2.96-.46.21-.96.31-1.5.31s-1.04-.1-1.5-.31-.85-.53-1.19-.96c-.33-.43-.6-.97-.78-1.62-.19-.65-.28-1.42-.28-2.31s.09-1.66.28-2.31c.19-.65.45-1.19.78-1.62.33-.43.73-.75,1.19-.95.46-.21.96-.31,1.5-.31s1.04.1,1.5.31c.46.21.86.52,1.2.95.34.43.6.97.79,1.62s.29,1.42.29,2.31ZM120.38,40.04c0-.7-.04-1.28-.13-1.73-.09-.45-.21-.8-.35-1.06-.15-.25-.31-.43-.5-.53-.19-.09-.37-.14-.56-.14s-.38.05-.56.14c-.18.1-.35.27-.49.53-.14.26-.26.61-.34,1.06s-.13,1.02-.13,1.73.04,1.28.13,1.73.2.8.34,1.06.3.43.49.53c.18.1.37.14.56.14s.38-.05.56-.14c.19-.09.35-.27.5-.53s.26-.61.35-1.06c.09-.45.13-1.02.13-1.73Z"/>
      <path class="cls-1" d="M128.76,34.85c.5,0,.95.07,1.36.22.4.15.75.35,1.03.61.28.26.5.57.65.93.15.36.23.76.23,1.19,0,.37-.05.72-.16,1.03s-.25.62-.43.9c-.18.29-.39.56-.63.83s-.49.54-.76.81l-1.99,2.04c.25-.07.51-.13.76-.18s.48-.07.7-.07h1.9c.23,0,.42.06.55.19.13.13.2.3.2.51v1.25h-7.14v-.7c0-.13.03-.28.08-.43.06-.15.15-.29.29-.42l2.93-2.95c.25-.25.47-.49.66-.72s.34-.45.46-.67.21-.44.27-.66c.06-.22.09-.45.09-.7,0-.4-.1-.71-.29-.93-.19-.22-.49-.32-.88-.32-.16,0-.31.02-.45.07-.13.05-.26.11-.36.19-.11.08-.2.17-.28.28-.08.11-.14.22-.18.35-.07.21-.17.36-.28.45-.11.09-.27.14-.46.14-.05,0-.1,0-.15,0-.05,0-.11-.01-.16-.02l-1.14-.2c.07-.51.22-.95.43-1.33.21-.38.47-.69.79-.94.31-.25.67-.44,1.08-.56s.84-.18,1.3-.18Z"/>
      <path class="cls-1" d="M141.13,41.17h1.05v1.21c0,.11-.04.2-.11.28-.07.08-.18.12-.31.12h-.63v2.33h-1.88v-2.33h-4.08c-.13,0-.26-.04-.37-.13s-.18-.19-.21-.31l-.22-1.07,4.7-6.32h2.06v6.21ZM139.25,38.53c0-.16,0-.34.02-.53.01-.19.03-.38.05-.58l-2.68,3.76h2.61v-2.65Z"/>
    </g>
    <g>
      <path class="cls-1" d="M8.17,25.14c-.21-.64-.36-1.03-.36-3.05v-3.91c0-2.31-.78-3.16-2.56-3.16h-1.35v10.12H0V.28h5.89c4.05,0,5.79,1.88,5.79,5.72v1.95c0,2.56-.82,4.23-2.56,5.04,1.95.82,2.59,2.7,2.59,5.29v3.83c0,1.21.04,2.1.43,3.02h-3.98ZM3.91,3.83v7.63h1.53c1.46,0,2.34-.64,2.34-2.63v-2.45c0-1.78-.6-2.56-1.99-2.56h-1.88Z"/>
      <path class="cls-1" d="M24.39.28v19.17c0,1.77.78,2.41,2.02,2.41s2.02-.64,2.02-2.41V.28h3.69v18.93c0,3.98-1.99,6.25-5.82,6.25s-5.82-2.27-5.82-6.25V.28h3.91Z"/>
      <path class="cls-1" d="M46.44,0c3.8,0,5.75,2.27,5.75,6.25v.78h-3.69v-1.03c0-1.78-.71-2.45-1.95-2.45s-1.95.67-1.95,2.45c0,5.11,7.63,6.07,7.63,13.17,0,3.98-1.99,6.25-5.82,6.25s-5.82-2.27-5.82-6.25v-1.53h3.69v1.78c0,1.78.78,2.42,2.02,2.42s2.02-.64,2.02-2.42c0-5.11-7.63-6.07-7.63-13.17,0-3.98,1.95-6.25,5.75-6.25Z"/>
      <path class="cls-1" d="M59.71.28h12.07v3.55h-4.08v21.3h-3.91V3.83h-4.08V.28Z"/>
      <path class="cls-1" d="M79.88.28h3.91v24.86h-3.91V.28Z"/>
      <path class="cls-1" d="M104.34,15.87v3.3c0,3.98-1.99,6.25-5.82,6.25s-5.82-2.27-5.82-6.25V6.25c0-3.98,1.99-6.25,5.82-6.25s5.82,2.27,5.82,6.25v2.41h-3.69v-2.66c0-1.78-.78-2.45-2.02-2.45s-2.02.67-2.02,2.45v13.42c0,1.78.78,2.42,2.02,2.42s2.02-.64,2.02-2.42v-3.55h3.69Z"/>
      <path class="cls-1" d="M136.57,6.43v3.23c0,3.98-1.92,6.14-5.82,6.14h-1.85v9.34h-3.91V.28h5.75c3.91,0,5.82,2.17,5.82,6.14ZM128.9,3.83v8.42h1.85c1.24,0,1.92-.57,1.92-2.34v-3.73c0-1.78-.67-2.34-1.92-2.34h-1.85Z"/>
      <path class="cls-1" d="M157.13,25.14h-3.94l-.67-4.51h-4.79l-.67,4.51h-3.59l3.98-24.86h5.72l3.98,24.86ZM148.22,17.26h3.76l-1.88-12.57-1.88,12.57Z"/>
      <path class="cls-1" d="M170.58,0c3.8,0,5.75,2.27,5.75,6.25v.78h-3.69v-1.03c0-1.78-.71-2.45-1.95-2.45s-1.95.67-1.95,2.45c0,5.11,7.63,6.07,7.63,13.17,0,3.98-1.99,6.25-5.82,6.25s-5.82-2.27-5.82-6.25v-1.53h3.69v1.78c0,1.78.78,2.42,2.02,2.42s2.02-.64,2.02-2.42c0-5.11-7.63-6.07-7.63-13.17,0-3.98,1.95-6.25,5.75-6.25Z"/>
      <path class="cls-1" d="M183.86.28h12.07v3.55h-4.08v21.3h-3.91V3.83h-4.08V.28Z"/>
      <path class="cls-1" d="M215.31,25.14h-3.94l-.67-4.51h-4.79l-.67,4.51h-3.59l3.98-24.86h5.72l3.98,24.86ZM206.4,17.26h3.76l-1.88-12.57-1.88,12.57Z"/>
    </g>
  </g>
  <rect class="cls-1" x="89.62" y="54.35" width="35.05" height="1.23"/>
</svg>